<?xml version="1.0" encoding="UTF-8" standalone="no"?>
<!DOCTYPE svg PUBLIC "-//W3C//DTD SVG 1.1//EN" "http://www.w3.org/Graphics/SVG/1.1/DTD/svg11.dtd">
<svg width="100%" height="100%" viewBox="0 0 1080 1080" version="1.1" xmlns="http://www.w3.org/2000/svg" xmlns:xlink="http://www.w3.org/1999/xlink" xml:space="preserve" xmlns:serif="http://www.serif.com/" style="fill-rule:evenodd;clip-rule:evenodd;stroke-linejoin:round;stroke-miterlimit:2;">
    <g transform="matrix(1.77195,0,0,1.77195,-417.384,-421.594)">
        <path d="M803.933,312.662C803.933,303.667 800.36,295.04 793.999,288.679C787.638,282.318 779.011,278.745 770.016,278.745L310.583,278.745C301.588,278.745 292.961,282.318 286.6,288.679C280.239,295.04 276.666,303.667 276.666,312.662L276.666,772.095C276.666,781.09 280.239,789.718 286.6,796.078C292.961,802.439 301.588,806.012 310.583,806.012L770.016,806.012C779.011,806.012 787.638,802.439 793.999,796.078C800.36,789.718 803.933,781.09 803.933,772.095L803.933,312.662Z" style="fill:none;"/>
        <clipPath id="_clip1">
            <path d="M803.933,312.662C803.933,303.667 800.36,295.04 793.999,288.679C787.638,282.318 779.011,278.745 770.016,278.745L310.583,278.745C301.588,278.745 292.961,282.318 286.6,288.679C280.239,295.04 276.666,303.667 276.666,312.662L276.666,772.095C276.666,781.09 280.239,789.718 286.6,796.078C292.961,802.439 301.588,806.012 310.583,806.012L770.016,806.012C779.011,806.012 787.638,802.439 793.999,796.078C800.36,789.718 803.933,781.09 803.933,772.095L803.933,312.662Z"/>
        </clipPath>
        <g clip-path="url(#_clip1)">
            <g transform="matrix(1.79587,0,0,1.79587,-429.599,-428.565)">
                <path d="M303.105,469.852C309.053,446.624 326.324,431.79 347.533,420.806C360.986,413.839 384.272,393.935 393.88,393.133C538.637,381.05 677.622,369.44 772.907,398.307C777.908,462.383 777.925,561.54 777.208,600.048C777.018,610.228 772.695,620.033 768.602,629.356C764.415,638.892 758.91,649.553 752.087,657.267C745.338,664.899 736.792,671.116 727.665,675.642C718.051,680.411 700.062,685.761 694.403,685.877C558.265,688.664 429.894,696.772 307.324,691.805C304.049,621.273 301.534,541.354 303.105,469.852Z" style="fill:none;"/>
                <clipPath id="_clip2">
                    <path d="M303.105,469.852C309.053,446.624 326.324,431.79 347.533,420.806C360.986,413.839 384.272,393.935 393.88,393.133C538.637,381.05 677.622,369.44 772.907,398.307C777.908,462.383 777.925,561.54 777.208,600.048C777.018,610.228 772.695,620.033 768.602,629.356C764.415,638.892 758.91,649.553 752.087,657.267C745.338,664.899 736.792,671.116 727.665,675.642C718.051,680.411 700.062,685.761 694.403,685.877C558.265,688.664 429.894,696.772 307.324,691.805C304.049,621.273 301.534,541.354 303.105,469.852Z"/>
                </clipPath>
                <g clip-path="url(#_clip2)">
                    <g>
                        <g transform="matrix(0.314249,0,0,0.314249,370.378,371.125)">
                            <rect x="72.854" y="72.327" width="934.292" height="922.184" style="fill:white;"/>
                        </g>
                        <path d="M627.922,394.158C634.5,382.245 845.839,368.333 707.928,415.822C693.565,420.768 676.86,417.537 671.891,443.801C666.922,470.065 662.663,465.806 647.757,491.36C632.85,516.914 634.98,518.503 625.752,557.544C616.524,596.585 552.207,595.837 525.233,622.811C498.26,649.784 514.635,679.646 501.858,687.454C489.081,695.263 480.559,699.932 480.559,699.932C480.559,699.932 476.139,700.165 470.324,700.397C464.509,700.63 458.229,700.63 441.25,700.63C424.27,700.63 424.735,700.397 410.314,699.699C395.893,699.002 388.217,699.699 369.609,699.002C351.002,698.304 358.367,689.258 350.226,689.258C342.085,689.258 350.404,684.467 350.404,684.467C354.126,682.399 363.498,682.465 369.459,680.963C379.299,678.484 389.636,672.985 399.157,667.305C416.853,656.748 428.563,637.537 431.349,625.623C438.681,590.697 451.025,570.469 465.802,557.379C511.668,630.001 596.193,641.21 610.361,531.963C612.281,517.153 579.514,496.718 583.99,478.431C594.509,433.346 605.967,413.884 627.922,394.158Z" style="fill:rgb(4,41,79);"/>
                        <g transform="matrix(0.271852,0,0,0.271852,393.272,393.854)">
                            <path d="M662.273,1103.94L573.606,1111.33C542.273,1113.94 495.273,1108.71 429.996,1111.33C364.718,1113.94 273.33,1111.33 273.33,1111.33L220.9,1077.65C264.692,1036.27 292.093,980.304 315.662,920.938C331.066,853.021 349.352,803.355 369.138,763.186C605.107,847.727 754.033,754.554 812.544,476.784C846.378,451.617 875.222,394.843 898.104,300.316C926.25,175.535 1002.35,104.829 1116.28,76.789C1189.58,62.248 1238.03,39.182 1271.36,10.48C1271.36,10.48 1343.84,-9.068 1353.03,-9.292C1362.23,-9.516 1398.79,-11.086 1404.62,2.595C1410.45,16.277 1413.59,27.716 1413.59,41.398C1413.59,55.08 1419.65,47.005 1418.08,65.173C1416.51,83.34 1417.4,97.022 1417.4,97.022L1417.88,111.604L1405.22,112.295C1360.78,137.397 1272.4,149.51 1228.09,174.126C1142.61,221.611 1086.97,282.471 1067.66,359.618C1013.98,564.331 899.421,679.752 743.068,733.877L557.02,821.606C533.587,842.09 504.786,872.903 491.309,910.588C473.865,959.367 467.667,1015.85 436.715,1077.96L478.197,1109.92L662.273,1103.94ZM1217.26,1085.89C1210.97,1087.24 1204.49,1088.73 1197.66,1090.44C1145.43,1103.49 1022.71,1108.71 1022.71,1108.71C1022.71,1108.71 933.936,1098.27 910.437,1098.27C886.937,1098.27 800.771,1100.88 800.771,1100.88L756.228,1100.88L1217.26,1085.89Z" style="fill:rgb(0,174,224);"/>
                        </g>
                        <path d="M555.995,687.201C562.742,663.477 576.062,640.931 600.038,636.857C632.53,631.336 699.2,591.512 709.069,536.549C716.431,503.358 737.274,483.776 775.65,476.946L785.535,476.364L781.755,676.689C781.755,676.689 747.156,688.61 732.91,690.936C718.663,693.262 679.412,694.134 662.84,694.715C646.267,695.297 581.14,693.262 576.197,692.68C571.255,692.099 555.995,687.201 555.995,687.201Z" style="fill:rgb(240,78,35);"/>
                        <path d="M612.334,686.753C622.388,673.715 635.438,668.931 665.991,661.949C702.374,647.155 735.963,618.725 746.63,565.718C751.571,547.118 761.882,532.423 777.74,521.761L789.951,522.924L782.682,686.033C782.682,686.033 682.665,692.72 679.176,692.72C675.687,692.72 623.353,691.557 623.353,691.557L612.334,686.753Z" style="fill:rgb(255,180,0);"/>
                        <path d="M345.302,685.603C356.003,684.991 376.822,680.382 392.665,670.536C430.373,652.044 433.772,618.991 438.915,600.747C441.289,592.327 453.157,569.856 465.955,556.844C469.796,487.104 514.465,462.414 584.01,478.286C586.885,469.486 594.513,446.708 596.759,440.572C600.23,431.089 612.534,408.211 627.785,394.412L570.333,393.947C570.333,393.947 560.486,410.312 529.431,419.185C498.376,428.058 484.796,458.225 473.261,488.393C461.727,518.56 343.156,521.019 336.945,547.638C330.734,574.256 326.615,580.622 318.8,596.252C310.984,611.883 303.169,612.441 303.727,630.863C304.285,649.285 306.891,649.098 304.658,658.588C302.425,668.078 299.634,667.706 300.564,672.358C301.494,677.01 300.936,677.196 302.425,680.173C303.913,683.151 293.121,683.523 305.03,684.639C316.939,685.756 324.568,685.198 336.663,685.012C348.758,684.825 345.302,685.603 345.302,685.603Z" style="fill:rgb(255,180,0);"/>
                        <g transform="matrix(0.271852,0,0,0.271852,393.272,393.854)">
                            <path d="M-296.988,476.797C-258.565,394.068 -211.107,298.636 -195.724,269.645C-167.917,217.24 -158.292,223.657 -133.693,159.486C-109.095,95.316 -32.091,115.637 22.454,91.038C76.999,66.44 293.038,0.131 293.038,0.131L482.339,1.2C450.473,116.584 356.155,216.513 238.493,277.132C81.331,321.55 0.424,329.011 -65.245,502.796C-106.353,680.273 -201.778,786.973 -329.358,843.753C-329.358,843.753 -337.724,839.62 -346.869,833.108C-347.26,896.373 -347.936,980.945 -347.936,980.945L-323.512,1002.95C-142.034,977.05 22.765,833.014 64.195,638.382C87.991,522.7 175.606,445.924 282.567,424.778L544.563,256.625C616.338,166.621 633.411,58.539 653.224,-0.055C653.224,-0.055 168.098,-17.702 73.18,22.405C-21.738,62.511 -28.423,22.405 -80.561,85.238C-132.699,148.071 -210.238,182.83 -215.586,234.968C-220.933,287.106 -243.66,323.202 -263.713,386.035C-283.766,448.868 -283.766,438.173 -294.461,468.921C-295.238,471.154 -296.085,473.802 -296.988,476.797Z" style="fill:rgb(240,78,35);"/>
                        </g>
                        <path d="M302.107,567.54C324.511,547.081 330.812,517.487 341.698,494.4C353.304,469.783 370.761,449.961 397.94,444.589C430.28,438.197 452.619,421.617 473.261,393.386L396.329,392.25C396.329,392.25 356.09,409.377 346.496,411.703C336.901,414.029 328.179,421.007 318.875,429.438C309.571,437.87 303.465,439.324 302.302,448.628C301.139,457.932 299.104,460.548 298.523,465.2C297.941,469.852 292.126,562.891 293.58,566.38C295.034,569.869 302.107,567.54 302.107,567.54Z" style="fill:rgb(0,174,224);"/>
                    </g>
                </g>
            </g>
            <g transform="matrix(1.79587,0,0,1.79587,-429.599,-428.565)">
                <g transform="matrix(0.271852,0,0,0.271852,393.272,393.854)">
                    <path d="M540,258.659C695.276,258.659 821.341,384.724 821.341,540C821.341,695.276 695.276,821.341 540,821.341C384.724,821.341 258.659,695.276 258.659,540C258.659,384.724 384.724,258.659 540,258.659ZM540,304.614C669.913,304.614 775.386,410.087 775.386,540C775.386,669.913 669.913,775.386 540,775.386C410.087,775.386 304.614,669.913 304.614,540C304.614,410.087 410.087,304.614 540,304.614Z" style="fill:rgb(4,41,79);"/>
                </g>
                <g transform="matrix(-0.036148,1.10811,-1.05585,-0.0344432,1138.49,-40.4393)">
                    <path d="M537.815,514.379C538.209,513.824 538.821,513.484 539.48,513.454C540.139,513.424 540.777,513.706 541.216,514.224C555.716,531.326 565.194,546.525 572.716,564.809C572.966,565.422 572.952,566.118 572.676,566.719C572.4,567.32 571.889,567.765 571.276,567.941C552.653,573.22 534.95,573.992 512.658,570.402C512.012,570.298 511.443,569.897 511.108,569.308C510.772,568.719 510.704,568.004 510.922,567.357C517.659,547.44 525.836,531.292 537.815,514.379Z" style="fill:rgb(0,174,224);"/>
                </g>
            </g>
        </g>
    </g>
    <g transform="matrix(0.924619,0,0,0.924619,40.7058,40.6662)">
        <path d="M1080,63.982C1080,28.064 1050.88,-1.053 1014.97,-1.053C822.542,-1.053 257.458,-1.053 65.034,-1.053C29.117,-1.053 0,28.064 0,63.982C0,256.553 0,822.394 0,1014.97C0,1050.88 29.117,1080 65.034,1080C257.458,1080 822.542,1080 1014.97,1080C1050.88,1080 1080,1050.88 1080,1014.97C1080,822.394 1080,256.553 1080,63.982ZM1023.33,55.445L56.67,55.445L56.67,1019.16L1023.33,1019.16L1023.33,55.445Z" style="fill:rgb(4,41,79);"/>
    </g>
</svg>
